<?xml version="1.0" encoding="UTF-8"?>
<svg width="200" height="50" viewBox="0 0 200 50" xmlns="http://www.w3.org/2000/svg">
  <path d="M40 25c0-8.284-6.716-15-15-15-8.284 0-15 6.716-15 15 0 8.284 6.716 15 15 15 8.284 0 15-6.716 15-15z" fill="white"/>
  <path d="M25 35c5.523 0 10-4.477 10-10s-4.477-10-10-10-10 4.477-10 10 4.477 10 10 10z" fill="#4F46E5"/>
  <path d="M25 20l-5 5 5 5 5-5-5-5z" fill="white"/>
  <text x="55" y="32" font-family="Arial" font-size="20" font-weight="bold" fill="white">Caixeiro</text>
</svg>